<svg height="512" viewBox="0 0 128 128" width="512" xmlns="http://www.w3.org/2000/svg"><g><path d="m106.312 9.749h-16.437v11h-51.75v-11h-16.438a5 5 0 0 0 -5 5v106.5a5 5 0 0 0 5 5h84.625a5 5 0 0 0 5-5v-106.501a5 5 0 0 0 -5-4.999z" fill="#54528e"/><path d="m43.125 1.747h41.75a5 5 0 0 1 5 5v14.005a0 0 0 0 1 0 0h-51.75a0 0 0 0 1 0 0v-14.005a5 5 0 0 1 5-5z" fill="#fff06d"/><path d="m24.687 20.752h78.625v97.495h-78.625z" fill="#eff4f9"/><path d="m46.125 9.747h35.75v11.005h-35.75z" fill="#f37"/><path d="m32.687 81.4h9.911v10.29h-9.911z" fill="#2fe6a9"/><path d="m32.687 99.957h9.911v10.29h-9.911z" fill="#2fe6a9"/><g fill="#f37"><path d="m68 58.819h-8v-10.561h4a5.568 5.568 0 1 0 -5.568-5.568h-8a13.568 13.568 0 1 1 17.568 12.967z"/><path d="m60 65.63h8v7.284h-8z"/></g><g fill="#d8e5ef"><path d="m95.312 84.375h-44.312a1.75 1.75 0 0 1 0-3.5h44.312a1.75 1.75 0 1 1 0 3.5z"/><path d="m86.375 92.214h-35.375a1.75 1.75 0 0 1 0-3.5h35.375a1.75 1.75 0 0 1 0 3.5z"/><path d="m95.312 102.932h-44.312a1.75 1.75 0 0 1 0-3.5h44.312a1.75 1.75 0 0 1 0 3.5z"/><path d="m86.375 110.771h-35.375a1.75 1.75 0 0 1 0-3.5h35.375a1.75 1.75 0 0 1 0 3.5z"/></g></g></svg>